# xmcd
# Track frame offsets:
# 150
# 11831
# 38180
# 49397
# 78333
# 93962
# 111986
# 151454
# 167019
# 182648
# 204625
# 206834
# 211084
# 230972
# 247565
#
# Disc length: 3525 seconds
# Revision: 0
# Processed by: cddbd v1.5.2PL0 Copyright (c) Steve Scherf et al.
# Submitted via: VisiTrax 2.10.2.252 - For more info visit www.synapsa.com
#
DISCID=ca0dc30f
DTITLE=Loose Shoes - Blue Note 2002 cd 2
DYEAR=2002
DGENRE=Blues
TTITLE0=Demo
TTITLE1=Demo
TTITLE2=Demo
TTITLE3=Demo
TTITLE4=Demo
TTITLE5=Demo
TTITLE6=Demo
TTITLE7=Demo
TTITLE8=Demo
TTITLE9=Demo
TTITLE10=Demo
TTITLE11=Demo
TTITLE12=Demo
TTITLE13=Demo
TTITLE14=Demo
EXTD=
EXTT0=
EXTT1=
EXTT2=
EXTT3=
EXTT4=
EXTT5=
EXTT6=
EXTT7=
EXTT8=
EXTT9=
EXTT10=
EXTT11=
EXTT12=
EXTT13=
EXTT14=
PLAYORDER=
